<svg xmlns="http://www.w3.org/2000/svg" viewBox="0 0 1920 880" preserveAspectRatio="xMidYMid slice">
  <defs>
    <linearGradient id="bg" x1="0" y1="0" x2="1" y2="1">
      <stop offset="0" stop-color="#081325"/>
      <stop offset="0.55" stop-color="#0B1E3A"/>
      <stop offset="1" stop-color="#0E2A52"/>
    </linearGradient>
    <radialGradient id="glow" cx="0.78" cy="0.32" r="0.55">
      <stop offset="0" stop-color="#2E7CD6" stop-opacity="0.28"/>
      <stop offset="1" stop-color="#2E7CD6" stop-opacity="0"/>
    </radialGradient>
    <pattern id="dots" width="46" height="46" patternUnits="userSpaceOnUse">
      <circle cx="2" cy="2" r="1.1" fill="#3D6EA8" opacity="0.18"/>
    </pattern>
  </defs>
  <rect width="1920" height="880" fill="url(#bg)"/>
  <rect width="1920" height="880" fill="url(#dots)"/>
  <rect width="1920" height="880" fill="url(#glow)"/>
  <g stroke="#2E7CD6" stroke-width="2" fill="none" opacity="0.5">
    <path d="M1030 760 L1210 600 L1415 585 L1580 430 L1760 405 L1905 280"/>
    <path d="M1120 820 L1330 700 L1480 705 L1665 545 L1860 520" opacity="0.55"/>
    <path d="M990 640 L1150 500 L1290 488 L1430 350 L1620 330 L1745 210 L1910 185" opacity="0.7"/>
  </g>
  <g fill="#5EA0E6">
    <circle cx="1210" cy="600" r="5"/><circle cx="1415" cy="585" r="4"/>
    <circle cx="1580" cy="430" r="5"/><circle cx="1760" cy="405" r="4"/>
    <circle cx="1330" cy="700" r="4"/><circle cx="1665" cy="545" r="5"/>
    <circle cx="1150" cy="500" r="4"/><circle cx="1430" cy="350" r="5"/>
    <circle cx="1620" cy="330" r="4"/><circle cx="1745" cy="210" r="5"/>
  </g>
  <g fill="none" stroke="#5EA0E6" opacity="0.35">
    <circle cx="1580" cy="430" r="14"/><circle cx="1430" cy="350" r="12"/><circle cx="1210" cy="600" r="12"/>
  </g>
  <g stroke="#1A4A86" stroke-width="1.2" fill="none" opacity="0.5">
    <path d="M-20 700 Q 300 640 620 690 T 1240 660"/>
    <path d="M-20 780 Q 360 720 700 765 T 1380 740" opacity="0.6"/>
  </g>
</svg>
